<svg width="18" height="11" viewBox="0 0 18 11" fill="none" xmlns="http://www.w3.org/2000/svg">
<path fill-rule="evenodd" clip-rule="evenodd" d="M17.1318 4.9587C17.2256 5.05247 17.2782 5.17965 17.2782 5.31226C17.2782 5.44486 17.2256 5.57204 17.1318 5.66581L12.8892 9.90845C12.7954 10.0022 12.6682 10.0549 12.5356 10.0549C12.403 10.0549 12.2758 10.0022 12.1821 9.90845C12.0883 9.81468 12.0356 9.6875 12.0356 9.5549C12.0356 9.42229 12.0883 9.29511 12.1821 9.20134L15.5712 5.81218L1.2219 5.81289C1.08912 5.81289 0.961782 5.76014 0.867896 5.66626C0.77401 5.57237 0.721264 5.44503 0.721264 5.31226C0.721264 5.17948 0.77401 5.05214 0.867896 4.95826C0.961782 4.86437 1.08912 4.81162 1.2219 4.81162L15.5712 4.81233L12.1821 1.42317C12.0883 1.3294 12.0356 1.20222 12.0356 1.06961C12.0356 0.937007 12.0883 0.80983 12.1821 0.716062C12.2758 0.622294 12.403 0.569615 12.5356 0.569615C12.6682 0.569615 12.7954 0.622294 12.8892 0.716062L17.1318 4.9587Z" fill="white"/>
</svg>
