<svg width="30" height="27" viewBox="0 0 30 27" fill="none" xmlns="http://www.w3.org/2000/svg">
<path d="M26.5 1.7C26.2 0.7 25.2 0 24.2 0H5.8C4.6 0 3.8 0.7 3.5 1.7L0 11.7V25C0 25.9 0.7 26.7 1.7 26.7H3.4C4.3 26.7 5.1 26 5.1 25V24C5 23.7 5.3 23.4 5.6 23.4H24.3C24.7 23.4 24.9 23.7 24.9 24V25C24.9 25.9 25.6 26.7 26.6 26.7H28.3C29.2 26.7 30 26 30 25V11.7L26.5 1.7ZM5.8 18.4C4.5 18.4 3.3 17.2 3.3 15.9C3.3 14.6 4.5 13.4 5.8 13.4C7.1 13.4 8.3 14.6 8.3 15.9C8.3 17.2 7.2 18.4 5.8 18.4ZM24.2 18.4C22.9 18.4 21.7 17.2 21.7 15.9C21.7 14.6 22.9 13.4 24.2 13.4C25.5 13.4 26.7 14.6 26.7 15.9C26.7 17.2 25.5 18.4 24.2 18.4ZM3.8 8.7L5.6 3.3C5.7 2.9 6.1 2.6 6.6 2.6H23.4C23.8 2.6 24.2 2.9 24.4 3.3L26.2 8.7C26.4 9.4 25.9 10.1 25.2 10.1H4.8C4.1 10.1 3.6 9.4 3.8 8.7Z" fill="#9ECBFF"/>
</svg>
