<svg width="1030" height="289" viewBox="0 0 1030 289" fill="none" xmlns="http://www.w3.org/2000/svg">
<path fill-rule="evenodd" clip-rule="evenodd" d="M1029 128.5C1029 145.669 1015.03 162.313 989.021 177.657C963.079 192.96 925.474 206.777 878.918 218.393C800.24 238.024 696.159 251.334 580 254.986V255.986C833.741 248.013 1030 193.975 1030 128.5C1030 57.5314 799.427 0 515 0C230.573 0 0 57.5314 0 128.5C0 193.889 195.743 247.871 449 255.955V254.954C333.243 251.257 229.534 237.968 151.082 218.393C104.526 206.777 66.9211 192.96 40.9794 177.657C14.9701 162.313 1 145.669 1 128.5C1 111.331 14.9701 94.6867 40.9794 79.3433C66.9211 64.0398 104.526 50.2234 151.082 38.607C244.179 15.378 372.844 1 515 1C657.156 1 785.821 15.378 878.918 38.607C925.474 50.2234 963.079 64.0398 989.021 79.3433C1015.03 94.6867 1029 111.331 1029 128.5Z" fill="url(#paint0_linear_725:596)"/>
<path d="M477 267.8L467 257.8V255L477 245L479.84 247.8L473.28 254.4H495.56V258.4H473.28L479.88 265L477 267.8Z" fill="white"/>
<path d="M553 267.8L563 257.8V255L553 245L550.16 247.8L556.72 254.4H534.44V258.4H556.72L550.12 265L553 267.8Z" fill="white"/>
<defs>
<linearGradient id="paint0_linear_725:596" x1="515" y1="0" x2="515" y2="255.986" gradientUnits="userSpaceOnUse">
<stop offset="0.302083" stop-color="white" stop-opacity="0"/>
<stop offset="1" stop-color="white"/>
</linearGradient>
</defs>
</svg>
