<svg width="15" height="15" viewBox="0 0 15 15" fill="none" xmlns="http://www.w3.org/2000/svg">
<path d="M7.37366 10.4631C7.38867 10.4821 7.40784 10.4975 7.42973 10.508C7.45162 10.5186 7.47565 10.5241 7.5 10.5241C7.52435 10.5241 7.54838 10.5186 7.57027 10.508C7.59216 10.4975 7.61133 10.4821 7.62634 10.4631L9.87233 7.64517C9.95455 7.54176 9.88035 7.38864 9.74599 7.38864H8.26003V0.659091C8.26003 0.571591 8.18783 0.5 8.0996 0.5H6.89639C6.80816 0.5 6.73596 0.571591 6.73596 0.659091V7.38665H5.25401C5.11965 7.38665 5.04545 7.53977 5.12767 7.64318L7.37366 10.4631ZM14.8396 9.76705H13.6364C13.5481 9.76705 13.4759 9.83864 13.4759 9.92614V12.9886H1.52406V9.92614C1.52406 9.83864 1.45187 9.76705 1.36364 9.76705H0.160428C0.0721925 9.76705 0 9.83864 0 9.92614V13.8636C0 14.2156 0.286765 14.5 0.641711 14.5H14.3583C14.7132 14.5 15 14.2156 15 13.8636V9.92614C15 9.83864 14.9278 9.76705 14.8396 9.76705Z" fill="#333333"/>
</svg>
